<?xml version="1.0" encoding="utf-8"?>
<!-- Generator: Adobe Illustrator 17.1.0, SVG Export Plug-In . SVG Version: 6.00 Build 0)  -->
<!DOCTYPE svg PUBLIC "-//W3C//DTD SVG 1.1//EN" "http://www.w3.org/Graphics/SVG/1.1/DTD/svg11.dtd">
<svg version="1.1" id="Filled_Icon" xmlns="http://www.w3.org/2000/svg" xmlns:xlink="http://www.w3.org/1999/xlink" x="0px"
	 y="0px" width="24px" height="24px" viewBox="0 0 24 24" enable-background="new 0 0 24 24" xml:space="preserve">
<g>
	<path d="M6.363,3.986C6.639,4.769,7.059,5.481,7.616,6.08C6.284,6.776,5.144,7.783,4.275,8.998h15.449
		c-0.868-1.215-2.009-2.222-3.341-2.918c0.559-0.601,0.979-1.312,1.253-2.094C18.675,3.914,19.5,3.056,19.5,2c0-1.102-0.897-2-2-2
		s-2,0.897-2,2c0,0.795,0.47,1.477,1.144,1.8c-0.271,0.704-0.692,1.329-1.239,1.842C14.346,5.233,13.201,5,12,5
		S9.654,5.233,8.596,5.642C8.048,5.129,7.628,4.504,7.356,3.8C8.03,3.477,8.5,2.795,8.5,2c0-1.102-0.898-2-2-2s-2,0.897-2,2
		C4.5,3.056,5.325,3.914,6.363,3.986z"/>
	<path d="M11,10H3.662c-0.036,0.064-0.083,0.122-0.117,0.189L1.697,9.366c-0.248-0.11-0.548,0.001-0.66,0.254
		c-0.112,0.252,0.001,0.548,0.254,0.66l1.848,0.822c-0.349,0.907-0.56,1.88-0.613,2.896H0.5c-0.276,0-0.5,0.224-0.5,0.5
		c0,0.276,0.224,0.5,0.5,0.5h2.025c0.059,1.133,0.307,2.217,0.73,3.211l-1.81,0.883c-0.249,0.121-0.352,0.42-0.23,0.668
		c0.087,0.178,0.265,0.281,0.449,0.281c0.074,0,0.148-0.017,0.219-0.051l1.814-0.885c1.47,2.639,4.161,4.493,7.303,4.825V10z"/>
	<path d="M23.5,13.998h-2.025c-0.054-1.016-0.265-1.988-0.613-2.896l1.848-0.822c0.253-0.112,0.366-0.408,0.254-0.66
		c-0.112-0.253-0.411-0.364-0.66-0.254l-1.848,0.822c-0.034-0.066-0.081-0.125-0.117-0.189H12v14c3.567,0,6.679-1.979,8.303-4.895
		l1.815,0.885c0.07,0.034,0.144,0.051,0.219,0.051c0.185,0,0.363-0.104,0.449-0.281c0.121-0.248,0.018-0.547-0.23-0.668l-1.81-0.883
		c0.423-0.994,0.671-2.078,0.729-3.211H23.5c0.276,0,0.5-0.224,0.5-0.5C24,14.222,23.776,13.998,23.5,13.998z"/>
</g>
</svg>
